Walk_Norm15
version=1
nRows=28
nColumns=37
inDegrees=yes
endheader
time	ground_force2_vx	ground_force2_vy	ground_force2_vz	ground_force2_px	ground_force2_py	ground_force2_pz	ground_torque2_x	ground_torque2_y	ground_torque2_z	ground_force1_vx	ground_force1_vy	ground_force1_vz	ground_force1_px	ground_force1_py	ground_force1_pz	ground_torque1_x	ground_torque1_y	ground_torque1_z	ground_force4_vx	ground_force4_vy	ground_force4_vz	ground_force4_px	ground_force4_py	ground_force4_pz	ground_torque4_x	ground_torque4_y	ground_torque4_z	ground_force3_vx	ground_force3_vy	ground_force3_vz	ground_force3_px	ground_force3_py	ground_force3_pz	ground_torque3_x	ground_torque3_y	ground_torque3_z
2.375000	-0.000000	-0.000000	0.000000	0.202900	-0.000080	0.304365	0.000000	0.000000	-0.000000	-13.439416	87.781624	-20.168783	0.194375	0.000025	-0.418290	0.000068	-0.104314	0.000026	-0.000000	-0.000000	0.000000	-0.199669	-0.000131	0.305422	0.000000	0.000000	0.000000	-0.000000	-0.000000	0.000000	0.207643	0.000077	1.058390	0.000000	0.000000	0.000000	
2.376000	-0.000000	-0.000000	0.000000	0.202900	-0.000080	0.304365	0.000000	0.000000	-0.000000	-12.741304	81.419250	-21.945841	0.191487	0.000023	-0.419384	-0.000085	0.128188	-0.000029	-0.000000	-0.000000	0.000000	-0.199669	-0.000131	0.305422	0.000000	0.000000	0.000000	-0.000000	-0.000000	0.000000	0.207643	0.000077	1.058390	0.000000	0.000000	0.000000	
2.377000	-0.000000	-0.000000	0.000000	0.202900	-0.000080	0.304365	0.000000	0.000000	-0.000000	-11.411019	73.290665	-20.797304	0.192641	0.000023	-0.421787	-0.000039	0.067444	-0.000015	-0.000000	-0.000000	0.000000	-0.199669	-0.000131	0.305422	0.000000	0.000000	0.000000	-0.000000	-0.000000	0.000000	0.207643	0.000077	1.058390	0.000000	0.000000	0.000000	
2.378000	-0.000000	-0.000000	0.000000	0.202900	-0.000080	0.304365	0.000000	0.000000	-0.000000	-10.417279	69.404236	-16.275740	0.192849	0.000024	-0.419083	0.000011	-0.012343	0.000004	-0.000000	-0.000000	0.000000	-0.199669	-0.000131	0.305422	0.000000	0.000000	0.000000	-0.000000	-0.000000	0.000000	0.207643	0.000077	1.058390	0.000000	0.000000	0.000000	
2.379000	-0.000000	-0.000000	0.000000	0.202900	-0.000080	0.304365	0.000000	0.000000	-0.000000	-9.713269	63.395615	-16.899250	0.192326	0.000023	-0.422004	-0.000031	0.050341	-0.000011	-0.000000	-0.000000	0.000000	-0.199669	-0.000131	0.305422	0.000000	0.000000	0.000000	-0.000000	-0.000000	0.000000	0.207643	0.000077	1.058390	0.000000	0.000000	0.000000	
2.380000	-0.000000	-0.000000	0.000000	0.202900	-0.000080	0.304365	0.000000	0.000000	-0.000000	-9.265229	58.447601	-15.924269	0.191239	0.000023	-0.420254	0.000059	-0.086598	0.000020	-0.000000	-0.000000	0.000000	-0.199669	-0.000131	0.305422	0.000000	0.000000	0.000000	-0.000000	-0.000000	0.000000	0.207643	0.000077	1.058390	0.000000	0.000000	0.000000	
2.381000	-0.000000	-0.000000	0.000000	0.202900	-0.000080	0.304365	0.000000	0.000000	-0.000000	-6.870390	55.268803	-12.386497	0.193992	0.000024	-0.423189	0.000083	-0.125085	0.000029	-0.000000	-0.000000	0.000000	-0.199669	-0.000131	0.305422	0.000000	0.000000	0.000000	-0.000000	-0.000000	0.000000	0.207643	0.000077	1.058390	0.000000	0.000000	0.000000	
2.382000	-0.000000	-0.000000	0.000000	0.202900	-0.000080	0.304365	0.000000	0.000000	-0.000000	-5.979929	48.907291	-11.058557	0.189111	0.000019	-0.430143	0.000037	-0.054190	0.000013	-0.000000	-0.000000	0.000000	-0.199669	-0.000131	0.305422	0.000000	0.000000	0.000000	-0.000000	-0.000000	0.000000	0.207643	0.000077	1.058390	0.000000	0.000000	0.000000	
2.383000	-0.000000	-0.000000	0.000000	0.202900	-0.000080	0.304365	0.000000	0.000000	-0.000000	-4.836978	46.080219	-11.418930	0.189396	0.000023	-0.415199	0.000218	-0.330077	0.000078	-0.000000	-0.000000	0.000000	-0.199669	-0.000131	0.305422	0.000000	0.000000	0.000000	-0.000000	-0.000000	0.000000	0.207643	0.000077	1.058390	0.000000	0.000000	0.000000	
2.384000	-0.000000	-0.000000	0.000000	0.202900	-0.000080	0.304365	0.000000	0.000000	-0.000000	-3.764525	41.133011	-8.761143	0.189970	0.000020	-0.427947	0.000089	-0.133460	0.000032	-0.000000	-0.000000	0.000000	-0.199669	-0.000131	0.305422	0.000000	0.000000	0.000000	-0.000000	-0.000000	0.000000	0.207643	0.000077	1.058390	0.000000	0.000000	0.000000	
2.385000	-0.000000	-0.000000	0.000000	0.202900	-0.000080	0.304365	0.000000	0.000000	-0.000000	-2.963590	38.659622	-7.256168	0.193052	0.000021	-0.431577	0.000078	-0.114719	0.000027	-0.000000	-0.000000	0.000000	-0.199669	-0.000131	0.305422	0.000000	0.000000	0.000000	-0.000000	-0.000000	0.000000	0.207643	0.000077	1.058390	0.000000	0.000000	0.000000	
2.386000	-0.000000	-0.000000	0.000000	0.202900	-0.000080	0.304365	0.000000	0.000000	-0.000000	-2.694216	34.418320	-6.724126	0.187357	0.000018	-0.427265	0.000057	-0.084873	0.000020	-0.000000	-0.000000	0.000000	-0.199669	-0.000131	0.305422	0.000000	0.000000	0.000000	-0.000000	-0.000000	0.000000	0.207643	0.000077	1.058390	0.000000	0.000000	0.000000	
2.387000	-0.000000	-0.000000	0.000000	0.202900	-0.000080	0.304365	0.000000	0.000000	-0.000000	-1.979780	32.651894	-4.863887	0.185720	0.000018	-0.423348	0.000015	-0.020948	0.000006	-0.000000	-0.000000	0.000000	-0.199669	-0.000131	0.305422	0.000000	0.000000	0.000000	-0.000000	-0.000000	0.000000	0.207643	0.000077	1.058390	0.000000	0.000000	0.000000	
2.388000	-0.000000	-0.000000	0.000000	0.202900	-0.000080	0.304365	0.000000	0.000000	-0.000000	-1.442610	30.178329	-3.357512	0.196271	0.000024	-0.430574	-0.000046	0.071524	-0.000016	-0.000000	-0.000000	0.000000	-0.199669	-0.000131	0.305422	0.000000	0.000000	0.000000	-0.000000	-0.000000	0.000000	0.207643	0.000077	1.058390	0.000000	0.000000	0.000000	
2.389000	-0.000000	-0.000000	0.000000	0.202900	-0.000080	0.304365	0.000000	0.000000	-0.000000	-0.210546	28.411800	-3.363637	0.196235	0.000027	-0.415447	0.000146	-0.221835	0.000052	-0.000000	-0.000000	0.000000	-0.199669	-0.000131	0.305422	0.000000	0.000000	0.000000	-0.000000	-0.000000	0.000000	0.207643	0.000077	1.058390	0.000000	0.000000	0.000000	
2.390000	-0.000000	-0.000000	0.000000	0.202900	-0.000080	0.304365	0.000000	0.000000	-0.000000	-0.114194	23.463556	-2.386788	0.192709	0.000019	-0.437818	-0.000015	0.023995	-0.000005	-0.000000	-0.000000	0.000000	-0.199669	-0.000131	0.305422	0.000000	0.000000	0.000000	-0.000000	-0.000000	0.000000	0.207643	0.000077	1.058390	0.000000	0.000000	0.000000	
2.391000	-0.000000	-0.000000	0.000000	0.202900	-0.000080	0.304365	0.000000	0.000000	-0.000000	0.509971	22.403919	-0.881213	0.189332	0.000018	-0.436451	0.000049	-0.073273	0.000018	-0.000000	-0.000000	0.000000	-0.199669	-0.000131	0.305422	0.000000	0.000000	0.000000	-0.000000	-0.000000	0.000000	0.207643	0.000077	1.058390	0.000000	0.000000	0.000000	
2.392000	-0.000000	-0.000000	0.000000	0.202900	-0.000080	0.304365	0.000000	0.000000	-0.000000	1.042656	19.576679	-0.262164	0.182660	0.000012	-0.442591	0.000122	-0.184979	0.000044	-0.000000	-0.000000	0.000000	-0.199669	-0.000131	0.305422	0.000000	0.000000	0.000000	-0.000000	-0.000000	0.000000	0.207643	0.000077	1.058390	0.000000	0.000000	0.000000	
2.393000	-0.000000	-0.000000	0.000000	0.202900	-0.000080	0.304365	0.000000	0.000000	-0.000000	0.868210	18.162718	-0.172155	0.189182	0.000016	-0.441590	-0.000042	0.066400	-0.000015	-0.000000	-0.000000	0.000000	-0.199669	-0.000131	0.305422	0.000000	0.000000	0.000000	-0.000000	-0.000000	0.000000	0.207643	0.000077	1.058390	0.000000	0.000000	0.000000	
2.394000	-0.000000	-0.000000	0.000000	0.202900	-0.000080	0.304365	0.000000	0.000000	-0.000000	1.665390	17.103067	0.800039	0.198870	0.000022	-0.442681	0.000128	-0.194961	0.000046	-0.000000	-0.000000	0.000000	-0.199669	-0.000131	0.305422	0.000000	0.000000	0.000000	-0.000000	-0.000000	0.000000	0.207643	0.000077	1.058390	0.000000	0.000000	0.000000	
2.395000	-0.000000	-0.000000	0.000000	0.202900	-0.000080	0.304365	0.000000	0.000000	-0.000000	2.022719	15.689642	1.685913	0.192276	0.000020	-0.435839	0.000084	-0.127721	0.000030	-0.000000	-0.000000	0.000000	-0.199669	-0.000131	0.305422	0.000000	0.000000	0.000000	-0.000000	-0.000000	0.000000	0.207643	0.000077	1.058390	0.000000	0.000000	0.000000	
2.396000	-0.000000	-0.000000	0.000000	0.202900	-0.000080	0.304365	0.000000	0.000000	-0.000000	1.760360	14.982579	1.864963	0.173408	0.000013	-0.412767	-0.000027	0.040899	-0.000010	-0.000000	-0.000000	0.000000	-0.199669	-0.000131	0.305422	0.000000	0.000000	0.000000	-0.000000	-0.000000	0.000000	0.207643	0.000077	1.058390	0.000000	0.000000	0.000000	
2.397000	-0.000000	-0.000000	0.000000	0.202900	-0.000080	0.304365	0.000000	0.000000	-0.000000	1.847545	12.508264	1.421374	0.171086	0.000002	-0.452597	0.000070	-0.106371	0.000025	-0.000000	-0.000000	0.000000	-0.199669	-0.000131	0.305422	0.000000	0.000000	0.000000	-0.000000	-0.000000	0.000000	0.207643	0.000077	1.058390	0.000000	0.000000	0.000000	
2.398000	-0.000000	-0.000000	0.000000	0.202900	-0.000080	0.304365	0.000000	0.000000	-0.000000	2.292814	12.508805	2.483929	0.182481	0.000018	-0.417483	-0.000073	0.112245	-0.000026	-0.000000	-0.000000	0.000000	-0.199669	-0.000131	0.305422	0.000000	0.000000	0.000000	-0.000000	-0.000000	0.000000	0.207643	0.000077	1.058390	0.000000	0.000000	0.000000	
2.399000	-0.000000	-0.000000	0.000000	0.202900	-0.000080	0.304365	0.000000	0.000000	-0.000000	2.119336	13.215751	3.017143	0.183391	0.000021	-0.404561	-0.000035	0.054465	-0.000013	-0.000000	-0.000000	0.000000	-0.199669	-0.000131	0.305422	0.000000	0.000000	0.000000	-0.000000	-0.000000	0.000000	0.207643	0.000077	1.058390	0.000000	0.000000	0.000000	
2.400000	-0.000000	-0.000000	0.000000	0.202900	-0.000080	0.304365	0.000000	0.000000	-0.000000	2.471453	9.681229	2.661142	0.177774	0.000010	-0.438052	0.000049	-0.074087	0.000018	-0.000000	-0.000000	0.000000	-0.199669	-0.000131	0.305422	0.000000	0.000000	0.000000	-0.000000	-0.000000	0.000000	0.207643	0.000077	1.058390	0.000000	0.000000	0.000000	
2.401000	-0.000000	-0.000000	0.000000	0.202900	-0.000080	0.304365	0.000000	0.000000	-0.000000	-0.000000	-0.000000	0.000000	0.198840	0.000056	-0.300407	0.000000	0.000000	0.000000	-0.000000	-0.000000	0.000000	-0.199669	-0.000131	0.305422	0.000000	0.000000	0.000000	-0.000000	-0.000000	0.000000	0.207643	0.000077	1.058390	0.000000	0.000000	0.000000	
2.402000	-0.000000	-0.000000	0.000000	0.202900	-0.000080	0.304365	0.000000	0.000000	-0.000000	-0.000000	-0.000000	0.000000	0.198840	0.000056	-0.300407	0.000000	0.000000	0.000000	-0.000000	-0.000000	0.000000	-0.199669	-0.000131	0.305422	0.000000	0.000000	0.000000	-0.000000	-0.000000	0.000000	0.207643	0.000077	1.058390	0.000000	0.000000	0.000000	
